<svg id="Layer_1" data-name="Layer 1" xmlns="http://www.w3.org/2000/svg" viewBox="0 0 114.59 113.6"><defs><style>.cls-1{fill:#569dd5;}</style></defs><circle class="cls-1" cx="94.67" cy="94.15" r="12.57"/><circle class="cls-1" cx="19.94" cy="94.15" r="12.57"/><circle class="cls-1" cx="57.33" cy="56.8" r="12.57"/><path class="cls-1" d="M94.69,41.09A15.61,15.61,0,0,0,79,56.18a.09.09,0,0,0,0,.15,1.54,1.54,0,0,0,0,.48,1.6,1.6,0,0,0,0,.48s0,.09,0,.14a21.67,21.67,0,0,1-20.8,21,10.37,10.37,0,0,0-1.82,0A21.64,21.64,0,0,1,35.66,56.81,15.72,15.72,0,1,0,20,72.52,21.63,21.63,0,0,1,41.61,94.13v.05A15.72,15.72,0,0,0,73,94.13,21.62,21.62,0,0,1,94.69,72.52a15.72,15.72,0,0,0,0-31.43Z"/><circle class="cls-1" cx="57.33" cy="19.46" r="15.71"/><circle class="cls-1" cx="94.67" cy="19.46" r="12.57"/><circle class="cls-1" cx="19.94" cy="19.46" r="12.57"/></svg>